<svg width="5" height="5" viewBox="0 0 12 16" fill="none" xmlns="http://www.w3.org/2000/svg">
<path d="M2.15283 0.829229L3.00546 0.571229C3.80346 0.329729 4.65687 0.720479 4.99887 1.48398L5.67971 3.00498C5.97658 3.66723 5.81191 4.44648 5.27279 4.93098L3.77416 6.27948C3.86652 7.08648 4.15258 7.88073 4.63233 8.66223C5.08854 9.41813 5.69984 10.0799 6.43021 10.6085L8.23204 10.0385C8.91446 9.82323 9.65783 10.0715 10.0766 10.6542L11.052 12.0117C11.5396 12.6897 11.4517 13.6242 10.8477 14.1987L10.2001 14.8145C9.55571 15.4272 8.63579 15.65 7.78396 15.398C5.77418 14.804 3.92616 13.0407 2.23991 10.1082C0.551552 7.17073 -0.0443091 4.67873 0.45233 2.63223C0.66133 1.77123 1.30891 1.08498 2.15441 0.829229" fill="white"/>
</svg>
