<svg width="340" height="34" viewBox="0 0 340 34" fill="none" xmlns="http://www.w3.org/2000/svg">
<path d="M35.25 1L35.25 33M5.25 1L5.25 33M155.25 1V33M275.25 1V33M65.25 1V33M185.25 1V33M305.25 1V33M95.25 1V33M215.25 1V33M335.25 1V33M125.25 1V33M245.25 1V33M55.72 28H42.728V25.792C42.8133 25.728 42.8987 25.6533 42.984 25.568C43.0907 25.4827 43.208 25.3867 43.336 25.28C43.464 25.1947 43.592 25.088 43.72 24.96C43.8693 24.832 44.0293 24.6933 44.2 24.544C44.6693 24.0747 45.2667 23.456 45.992 22.688C46.7387 21.92 47.5067 21.0667 48.296 20.128C49.064 19.2107 49.8 18.24 50.504 17.216C51.208 16.192 51.7733 15.1893 52.2 14.208C52.3707 13.76 52.4987 13.216 52.584 12.576C52.6907 11.936 52.744 11.392 52.744 10.944C52.744 10.624 52.68 10.24 52.552 9.792C52.424 9.32267 52.2107 8.88533 51.912 8.48C51.6133 8.05333 51.2187 7.70133 50.728 7.424C50.2373 7.12533 49.64 6.976 48.936 6.976C47.72 6.976 46.7707 7.37067 46.088 8.16C45.4267 8.94933 45.128 9.792 45.192 10.688H42.568C42.568 10.2613 42.6533 9.728 42.824 9.088C43.016 8.448 43.3573 7.84 43.848 7.264C44.3173 6.66667 44.968 6.15466 45.8 5.728C46.632 5.30133 47.688 5.088 48.968 5.088C49.7573 5.088 50.5253 5.23733 51.272 5.536C52.04 5.81333 52.7227 6.208 53.32 6.72C53.896 7.25333 54.3653 7.904 54.728 8.672C55.0907 9.41867 55.272 10.2613 55.272 11.2C55.272 11.6693 55.2187 12.256 55.112 12.96C55.0267 13.6427 54.888 14.2293 54.696 14.72C54.3333 15.7227 53.8 16.736 53.096 17.76C52.392 18.784 51.6133 19.776 50.76 20.736C49.928 21.696 49.064 22.6133 48.168 23.488C47.2933 24.3627 46.504 25.152 45.8 25.856H55.72V28ZM85.88 16.736C85.88 18.016 85.784 19.3387 85.592 20.704C85.4213 22.0693 85.08 23.328 84.568 24.48C84.0773 25.6107 83.384 26.5493 82.488 27.296C81.592 28.0213 80.4293 28.384 79 28.384C77.72 28.384 76.632 28.064 75.736 27.424C74.8613 26.7627 74.1573 25.888 73.624 24.8C73.0907 23.712 72.7067 22.4747 72.472 21.088C72.2373 19.68 72.12 18.2293 72.12 16.736C72.12 15.456 72.216 14.1333 72.408 12.768C72.6213 11.4027 72.984 10.144 73.496 8.992C74.0293 7.86133 74.7333 6.93333 75.608 6.208C76.504 5.46133 77.6347 5.088 79 5.088C80.3867 5.088 81.5173 5.42933 82.392 6.112C83.2667 6.79467 83.96 7.69067 84.472 8.8C84.9627 9.888 85.304 11.136 85.496 12.544C85.7093 13.9307 85.8373 15.328 85.88 16.736ZM83.32 16.736C83.32 15.648 83.2667 14.528 83.16 13.376C83.0533 12.2027 82.8507 11.1467 82.552 10.208C82.2533 9.26933 81.816 8.50133 81.24 7.904C80.664 7.28533 79.9173 6.976 79 6.976C78.0827 6.976 77.336 7.27467 76.76 7.872C76.2053 8.46933 75.7787 9.23733 75.48 10.176C75.16 11.136 74.9467 12.192 74.84 13.344C74.7333 14.496 74.68 15.6267 74.68 16.736C74.68 17.8667 74.7333 19.008 74.84 20.16C74.9467 21.312 75.16 22.3573 75.48 23.296C75.8 24.256 76.2373 25.0347 76.792 25.632C77.368 26.208 78.104 26.496 79 26.496C79.9173 26.496 80.664 26.208 81.24 25.632C81.816 25.0347 82.2533 24.2667 82.552 23.328C82.8507 22.3893 83.0533 21.344 83.16 20.192C83.2667 19.04 83.32 17.888 83.32 16.736ZM115.72 28H102.728V25.792C102.813 25.728 102.899 25.6533 102.984 25.568C103.091 25.4827 103.208 25.3867 103.336 25.28C103.464 25.1947 103.592 25.088 103.72 24.96C103.869 24.832 104.029 24.6933 104.2 24.544C104.669 24.0747 105.267 23.456 105.992 22.688C106.739 21.92 107.507 21.0667 108.296 20.128C109.064 19.2107 109.8 18.24 110.504 17.216C111.208 16.192 111.773 15.1893 112.2 14.208C112.371 13.76 112.499 13.216 112.584 12.576C112.691 11.936 112.744 11.392 112.744 10.944C112.744 10.624 112.68 10.24 112.552 9.792C112.424 9.32267 112.211 8.88533 111.912 8.48C111.613 8.05333 111.219 7.70133 110.728 7.424C110.237 7.12533 109.64 6.976 108.936 6.976C107.72 6.976 106.771 7.37067 106.088 8.16C105.427 8.94933 105.128 9.792 105.192 10.688H102.568C102.568 10.2613 102.653 9.728 102.824 9.088C103.016 8.448 103.357 7.84 103.848 7.264C104.317 6.66667 104.968 6.15466 105.8 5.728C106.632 5.30133 107.688 5.088 108.968 5.088C109.757 5.088 110.525 5.23733 111.272 5.536C112.04 5.81333 112.723 6.208 113.32 6.72C113.896 7.25333 114.365 7.904 114.728 8.672C115.091 9.41867 115.272 10.2613 115.272 11.2C115.272 11.6693 115.219 12.256 115.112 12.96C115.027 13.6427 114.888 14.2293 114.696 14.72C114.333 15.7227 113.8 16.736 113.096 17.76C112.392 18.784 111.613 19.776 110.76 20.736C109.928 21.696 109.064 22.6133 108.168 23.488C107.293 24.3627 106.504 25.152 105.8 25.856H115.72V28ZM145.88 21.344C145.88 22.2827 145.699 23.1787 145.336 24.032C144.995 24.8853 144.515 25.632 143.896 26.272C143.277 26.912 142.52 27.424 141.624 27.808C140.749 28.1707 139.768 28.352 138.68 28.352C137.507 28.352 136.504 28.2027 135.672 27.904C134.861 27.584 134.189 27.1893 133.656 26.72C133.144 26.2507 132.771 25.7493 132.536 25.216C132.301 24.6613 132.184 24.1387 132.184 23.648H135.128C135.128 23.904 135.181 24.2027 135.288 24.544C135.416 24.864 135.619 25.1733 135.896 25.472C136.173 25.7493 136.536 25.9947 136.984 26.208C137.432 26.4 137.987 26.496 138.648 26.496C139.992 26.496 141.091 26.0267 141.944 25.088C142.797 24.128 143.256 22.8587 143.32 21.28C143.32 19.744 142.893 18.5387 142.04 17.664C141.208 16.7893 140.195 16.3093 139 16.224C138.168 16.1813 137.485 16.32 136.952 16.64C136.419 16.96 135.96 17.376 135.576 17.888H133.08L133.656 5.472H144.536V7.712H135.928L135.576 15.424C135.96 15.168 136.451 14.9333 137.048 14.72C137.667 14.4853 138.381 14.368 139.192 14.368C141.24 14.368 142.861 15.0187 144.056 16.32C145.272 17.6213 145.88 19.296 145.88 21.344ZM205.88 16.736C205.88 18.016 205.784 19.3387 205.592 20.704C205.421 22.0693 205.08 23.328 204.568 24.48C204.077 25.6107 203.384 26.5493 202.488 27.296C201.592 28.0213 200.429 28.384 199 28.384C197.72 28.384 196.632 28.064 195.736 27.424C194.861 26.7627 194.157 25.888 193.624 24.8C193.091 23.712 192.707 22.4747 192.472 21.088C192.237 19.68 192.12 18.2293 192.12 16.736C192.12 15.456 192.216 14.1333 192.408 12.768C192.621 11.4027 192.984 10.144 193.496 8.992C194.029 7.86133 194.733 6.93333 195.608 6.208C196.504 5.46133 197.635 5.088 199 5.088C200.387 5.088 201.517 5.42933 202.392 6.112C203.267 6.79467 203.96 7.69067 204.472 8.8C204.963 9.888 205.304 11.136 205.496 12.544C205.709 13.9307 205.837 15.328 205.88 16.736ZM203.32 16.736C203.32 15.648 203.267 14.528 203.16 13.376C203.053 12.2027 202.851 11.1467 202.552 10.208C202.253 9.26933 201.816 8.50133 201.24 7.904C200.664 7.28533 199.917 6.976 199 6.976C198.083 6.976 197.336 7.27467 196.76 7.872C196.205 8.46933 195.779 9.23733 195.48 10.176C195.16 11.136 194.947 12.192 194.84 13.344C194.733 14.496 194.68 15.6267 194.68 16.736C194.68 17.8667 194.733 19.008 194.84 20.16C194.947 21.312 195.16 22.3573 195.48 23.296C195.8 24.256 196.237 25.0347 196.792 25.632C197.368 26.208 198.104 26.496 199 26.496C199.917 26.496 200.664 26.208 201.24 25.632C201.816 25.0347 202.253 24.2667 202.552 23.328C202.851 22.3893 203.053 21.344 203.16 20.192C203.267 19.04 203.32 17.888 203.32 16.736ZM235.72 28H222.728V25.792C222.813 25.728 222.899 25.6533 222.984 25.568C223.091 25.4827 223.208 25.3867 223.336 25.28C223.464 25.1947 223.592 25.088 223.72 24.96C223.869 24.832 224.029 24.6933 224.2 24.544C224.669 24.0747 225.267 23.456 225.992 22.688C226.739 21.92 227.507 21.0667 228.296 20.128C229.064 19.2107 229.8 18.24 230.504 17.216C231.208 16.192 231.773 15.1893 232.2 14.208C232.371 13.76 232.499 13.216 232.584 12.576C232.691 11.936 232.744 11.392 232.744 10.944C232.744 10.624 232.68 10.24 232.552 9.792C232.424 9.32267 232.211 8.88533 231.912 8.48C231.613 8.05333 231.219 7.70133 230.728 7.424C230.237 7.12533 229.64 6.976 228.936 6.976C227.72 6.976 226.771 7.37067 226.088 8.16C225.427 8.94933 225.128 9.792 225.192 10.688H222.568C222.568 10.2613 222.653 9.728 222.824 9.088C223.016 8.448 223.357 7.84 223.848 7.264C224.317 6.66667 224.968 6.15466 225.8 5.728C226.632 5.30133 227.688 5.088 228.968 5.088C229.757 5.088 230.525 5.23733 231.272 5.536C232.04 5.81333 232.723 6.208 233.32 6.72C233.896 7.25333 234.365 7.904 234.728 8.672C235.091 9.41867 235.272 10.2613 235.272 11.2C235.272 11.6693 235.219 12.256 235.112 12.96C235.027 13.6427 234.888 14.2293 234.696 14.72C234.333 15.7227 233.8 16.736 233.096 17.76C232.392 18.784 231.613 19.776 230.76 20.736C229.928 21.696 229.064 22.6133 228.168 23.488C227.293 24.3627 226.504 25.152 225.8 25.856H235.72V28ZM260.728 28.128H258.232V7.776L254.296 10.272V7.936L258.616 5.248H260.728V28.128ZM295.88 21.344C295.88 22.2827 295.699 23.1787 295.336 24.032C294.995 24.8853 294.515 25.632 293.896 26.272C293.277 26.912 292.52 27.424 291.624 27.808C290.749 28.1707 289.768 28.352 288.68 28.352C287.507 28.352 286.504 28.2027 285.672 27.904C284.861 27.584 284.189 27.1893 283.656 26.72C283.144 26.2507 282.771 25.7493 282.536 25.216C282.301 24.6613 282.184 24.1387 282.184 23.648H285.128C285.128 23.904 285.181 24.2027 285.288 24.544C285.416 24.864 285.619 25.1733 285.896 25.472C286.173 25.7493 286.536 25.9947 286.984 26.208C287.432 26.4 287.987 26.496 288.648 26.496C289.992 26.496 291.091 26.0267 291.944 25.088C292.797 24.128 293.256 22.8587 293.32 21.28C293.32 19.744 292.893 18.5387 292.04 17.664C291.208 16.7893 290.195 16.3093 289 16.224C288.168 16.1813 287.485 16.32 286.952 16.64C286.419 16.96 285.96 17.376 285.576 17.888H283.08L283.656 5.472H294.536V7.712H285.928L285.576 15.424C285.96 15.168 286.451 14.9333 287.048 14.72C287.667 14.4853 288.381 14.368 289.192 14.368C291.24 14.368 292.861 15.0187 294.056 16.32C295.272 17.6213 295.88 19.296 295.88 21.344ZM1 1H339V33H1V1Z" stroke="#B09D86" stroke-width="0.5"/>
</svg>
