<svg width="5" height="5" viewBox="0 0 14 16" fill="none" xmlns="http://www.w3.org/2000/svg">
<path d="M12.4999 6.04824L3.02123 0.738389C2.64716 0.529794 2.22477 0.455533 1.81164 0.52573C1.39852 0.595928 1.01478 0.807167 0.712727 1.13065C0.410678 1.45413 0.205025 1.87411 0.123806 2.33333C0.0425877 2.79254 0.0897566 3.26865 0.258882 3.69674L1.88379 7.77015C1.92066 7.86864 1.93965 7.97436 1.93965 8.08116C1.93965 8.18796 1.92066 8.29368 1.88379 8.39217L0.258882 12.4656C0.121238 12.812 0.0630501 13.1915 0.0896048 13.5696C0.11616 13.9476 0.226615 14.3122 0.410934 14.6303C0.595253 14.9483 0.847591 15.2097 1.14502 15.3907C1.44244 15.5717 1.77552 15.6666 2.11399 15.6667C2.431 15.6631 2.7433 15.5802 3.028 15.4239L12.5067 10.1141C12.8429 9.92458 13.1255 9.63414 13.323 9.27518C13.5204 8.91621 13.625 8.50283 13.625 8.08116C13.625 7.65949 13.5204 7.24611 13.323 6.88714C13.1255 6.52818 12.8429 6.23774 12.5067 6.04824H12.4999ZM11.8973 8.75627L2.41866 14.0661C2.29419 14.1331 2.15443 14.1558 2.01811 14.1312C1.88179 14.1067 1.75543 14.036 1.65598 13.9287C1.55652 13.8214 1.48872 13.6826 1.46168 13.5309C1.43463 13.3792 1.44962 13.2219 1.50465 13.08L3.12279 9.00659C3.14374 8.9522 3.16182 8.89648 3.17695 8.83971H7.8418C8.02137 8.83971 8.19358 8.75979 8.32055 8.61754C8.44752 8.47528 8.51885 8.28234 8.51885 8.08116C8.51885 7.87998 8.44752 7.68704 8.32055 7.54478C8.19358 7.40253 8.02137 7.32261 7.8418 7.32261H3.17695C3.16182 7.26585 3.14374 7.21012 3.12279 7.15573L1.50465 3.08231C1.44962 2.94043 1.43463 2.7831 1.46168 2.6314C1.48872 2.47971 1.55652 2.34091 1.65598 2.2336C1.75543 2.1263 1.88179 2.05564 2.01811 2.03107C2.15443 2.00651 2.29419 2.02924 2.41866 2.09619L11.8973 7.40605C12.0082 7.46971 12.1013 7.56642 12.1663 7.68553C12.2313 7.80465 12.2657 7.94155 12.2657 8.08116C12.2657 8.22077 12.2313 8.35767 12.1663 8.47679C12.1013 8.5959 12.0082 8.69261 11.8973 8.75627Z" fill="white"/>
</svg>
