<svg width="17" height="20" viewBox="0 0 17 20" fill="none" xmlns="http://www.w3.org/2000/svg">
<path fill-rule="evenodd" clip-rule="evenodd" d="M14.9997 1.87858L4.99971 4.06958V16.7696C4.99971 17.7066 4.37271 18.6196 3.52971 19.0126C3.37271 19.0856 2.38171 19.3076 2.25271 19.3326C1.00971 19.5826 0.0547056 18.5186 0.00270564 17.4426C-0.0492944 16.3666 0.655706 15.4686 1.47471 15.3036L2.73971 14.9866C3.18671 14.8746 3.49971 14.4726 3.49971 14.0116V3.52958C3.4999 3.30169 3.57792 3.08069 3.72086 2.9032C3.86381 2.7257 4.06309 2.60235 4.28571 2.55358L15.8927 0.0115831C15.9657 -0.00440522 16.0413 -0.00383505 16.1141 0.0132513C16.1868 0.0303377 16.2548 0.0635059 16.313 0.110318C16.3712 0.157131 16.4182 0.216397 16.4505 0.28376C16.4828 0.351123 16.4996 0.424872 16.4997 0.499583V14.1096C16.4997 15.0466 15.8667 15.9596 15.0167 16.3526C14.8587 16.4256 13.8587 16.6476 13.7287 16.6726C12.4757 16.9226 11.5117 15.8586 11.4587 14.7826C11.4057 13.7066 12.1187 12.8086 12.9437 12.6436L14.2357 12.3236C14.6847 12.2136 14.9997 11.8106 14.9997 11.3486V1.87858Z" fill="#B09D86"/>
</svg>
