<svg width="20" height="20" viewBox="0 0 20 20" fill="none" xmlns="http://www.w3.org/2000/svg">
<path fill-rule="evenodd" clip-rule="evenodd" d="M6.32971 4.21L14.6557 12.535C14.8687 12.349 14.9997 12.075 14.9997 11.778V2.308L6.32971 4.21ZM16.4997 14.378L19.0917 16.97L18.0317 18.03L1.05971 1.061L2.11971 0L4.95671 2.836L15.8917 0.442C15.9647 0.426012 16.0403 0.426582 16.1131 0.443668C16.1858 0.460755 16.2538 0.493923 16.312 0.540735C16.3702 0.587547 16.4172 0.646814 16.4495 0.714177C16.4818 0.78154 16.4986 0.855288 16.4987 0.93V14.38L16.4997 14.378ZM4.99971 7.12V17.2C4.99971 18.137 4.37271 19.05 3.52971 19.443C3.37271 19.516 2.38171 19.738 2.25271 19.763C1.00971 20.013 0.0547056 18.949 0.00270564 17.873C-0.0492944 16.797 0.655706 15.899 1.47471 15.734L2.73971 15.417C3.18671 15.305 3.49971 14.903 3.49971 14.442V5.621L4.99971 7.121V7.12ZM14.7437 16.864C14.3877 16.958 13.8237 17.083 13.7287 17.102C12.4757 17.352 11.5117 16.287 11.4587 15.211C11.435 14.7549 11.552 14.3025 11.7937 13.915L14.7437 16.864Z" fill="#B09D86"/>
</svg>
