<svg width="191" height="191" viewBox="0 0 191 191" fill="none" xmlns="http://www.w3.org/2000/svg">
<mask id="mask0_269_37" style="mask-type:luminance" maskUnits="userSpaceOnUse" x="0" y="0" width="191" height="191">
<path d="M0 0H191V191H0V0Z" fill="white"/>
</mask>
<g mask="url(#mask0_269_37)">
<path d="M0.260925 0.260986H190.739V190.739H0.260925V0.260986Z" fill="white"/>
<path d="M36.2692 37.313H152.904V64.4496H36.2692V37.313Z" fill="url(#paint0_linear_269_37)"/>
<path fill-rule="evenodd" clip-rule="evenodd" d="M124.661 37.313H152.904V64.3703H135.66V64.3771L135.511 64.37C121.285 64.37 109.585 74.2733 108.179 86.9641L108.139 87.6472C108.105 110.095 108.072 132.544 108.035 154.992H81.9317V87.6472L82.2273 83.0322C84.5744 61.6838 100.657 44.0864 122.183 37.9016L124.661 37.313Z" fill="url(#paint1_linear_269_37)"/>
</g>
<defs>
<linearGradient id="paint0_linear_269_37" x1="36.2692" y1="50.8813" x2="152.904" y2="50.8813" gradientUnits="userSpaceOnUse">
<stop stop-color="#F645B9"/>
<stop offset="0.61" stop-color="#783BFF"/>
<stop offset="1" stop-color="#783BFF"/>
</linearGradient>
<linearGradient id="paint1_linear_269_37" x1="161.053" y1="44.1504" x2="73.7831" y2="148.155" gradientUnits="userSpaceOnUse">
<stop stop-color="#33E6AF"/>
<stop offset="0.85" stop-color="#0264FF"/>
<stop offset="1" stop-color="#0264FF"/>
</linearGradient>
</defs>
</svg>
